<?xml version="1.0" encoding="iso-8859-1"?>
<!-- Generator: Adobe Illustrator 16.0.0, SVG Export Plug-In . SVG Version: 6.00 Build 0)  -->
<!DOCTYPE svg PUBLIC "-//W3C//DTD SVG 1.1//EN" "http://www.w3.org/Graphics/SVG/1.1/DTD/svg11.dtd">
<svg version="1.1" id="Capa_1" xmlns="http://www.w3.org/2000/svg" xmlns:xlink="http://www.w3.org/1999/xlink" x="0px" y="0px"
	 width="410.489px" height="410.489px" viewBox="0 0 410.489 410.489" style="enable-background:new 0 0 410.489 410.489;"
	 xml:space="preserve">
<g>
	<path d="M370.446,256.623l36.079-81.654c2.257-5.125,3.328-10.356,3.356-15.262c1.167-5.059,0.708-10.519-1.854-15.482
		c-3.356-6.55-9.477-10.643-16.209-11.876c-2.696-1.252-5.604-2.247-8.759-2.897l-87.459-17.939
		c-16.715-3.452-32.397,4.102-35.008,16.839c-2.611,12.747,8.807,25.848,25.531,29.261l33.211,6.837L186.99,232.726
		c-11.15,5.709-15.51,19.422-9.773,30.553c5.767,11.131,19.44,15.481,30.561,9.744l134.631-69.396l-15.022,34.004
		c-6.885,15.616-2.84,32.513,9.056,37.782C348.338,280.654,363.562,272.239,370.446,256.623z"/>
	<path d="M74.067,135.093c-11.905-5.26-27.129,3.146-34.023,18.762l-36.08,81.654c-2.256,5.125-3.328,10.355-3.356,15.28
		c-1.167,5.049-0.708,10.5,1.855,15.463c3.366,6.55,9.476,10.643,16.208,11.877c2.696,1.252,5.613,2.247,8.769,2.897l87.458,17.958
		c16.706,3.433,32.388-4.121,34.999-16.858c2.61-12.729-8.807-25.848-25.532-29.262l-33.211-6.827l132.344-68.267
		c11.15-5.728,15.521-19.44,9.773-30.571c-5.767-11.131-19.431-15.482-30.561-9.744L68.081,206.87l15.023-34.014
		C90.007,157.259,85.972,140.343,74.067,135.093z"/>
</g>
<g>
</g>
<g>
</g>
<g>
</g>
<g>
</g>
<g>
</g>
<g>
</g>
<g>
</g>
<g>
</g>
<g>
</g>
<g>
</g>
<g>
</g>
<g>
</g>
<g>
</g>
<g>
</g>
<g>
</g>
</svg>
