<?xml version="1.0" encoding="iso-8859-1"?>
<!-- Generator: Adobe Illustrator 19.0.0, SVG Export Plug-In . SVG Version: 6.00 Build 0)  -->
<svg version="1.1" id="Layer_1" xmlns="http://www.w3.org/2000/svg" xmlns:xlink="http://www.w3.org/1999/xlink" x="0px" y="0px"
	 viewBox="0 0 511.989 511.989" style="enable-background:new 0 0 511.989 511.989;" xml:space="preserve">
<g>
	<g>
		<g>
			<path d="M474.107,406.453L260.773,299.787c-3.008-1.493-6.549-1.493-9.536,0L37.904,406.453
				c-3.627,1.813-5.909,5.504-5.909,9.536v64c0,17.643,14.357,32,32,32h384c17.643,0,32-14.357,32-32v-64
				C479.995,411.957,477.712,408.267,474.107,406.453z"/>
			<path d="M474.107,107.787L260.773,1.12c-3.008-1.493-6.549-1.493-9.536,0L37.904,107.787c-3.627,1.813-5.909,5.504-5.909,9.536
				v64c0,3.691,1.92,7.125,5.056,9.067c3.136,1.941,7.061,2.091,10.368,0.469L255.973,86.581l208.555,104.277
				c1.536,0.747,3.157,1.131,4.8,1.131c1.941,0,3.904-0.533,5.611-1.6c3.136-1.941,5.056-5.376,5.056-9.067v-64
				C479.995,113.291,477.712,109.6,474.107,107.787z"/>
			<path d="M474.107,257.12L260.773,150.453c-3.008-1.493-6.549-1.493-9.536,0L37.904,257.12c-3.627,1.813-5.909,5.504-5.909,9.536
				v64c0,3.691,1.92,7.125,5.056,9.067c3.136,1.941,7.061,2.091,10.368,0.469l208.555-104.277l208.555,104.277
				c1.536,0.747,3.157,1.131,4.8,1.131c1.941,0,3.904-0.533,5.611-1.6c3.136-1.941,5.056-5.376,5.056-9.067v-64
				C479.995,262.624,477.712,258.933,474.107,257.12z"/>
		</g>
	</g>
</g>
<g>
</g>
<g>
</g>
<g>
</g>
<g>
</g>
<g>
</g>
<g>
</g>
<g>
</g>
<g>
</g>
<g>
</g>
<g>
</g>
<g>
</g>
<g>
</g>
<g>
</g>
<g>
</g>
<g>
</g>
</svg>
