<?xml version="1.0" encoding="iso-8859-1"?>
<!-- Generator: Adobe Illustrator 19.0.0, SVG Export Plug-In . SVG Version: 6.00 Build 0)  -->
<svg version="1.1" id="Layer_1" xmlns="http://www.w3.org/2000/svg" xmlns:xlink="http://www.w3.org/1999/xlink" x="0px" y="0px"
	 viewBox="0 0 512 512" style="enable-background:new 0 0 512 512;" xml:space="preserve">
<g>
	<g>
		<polygon points="367.304,333.913 367.304,300.522 400.696,300.522 400.696,267.13 434.087,267.13 434.087,100.174 
			400.696,100.174 400.696,66.783 367.304,66.783 367.304,33.391 333.913,33.391 333.913,0 178.087,0 178.087,33.391 
			144.696,33.391 144.696,66.783 111.304,66.783 111.304,100.174 77.913,100.174 77.913,267.13 111.304,267.13 111.304,300.522 
			144.696,300.522 144.696,333.913 178.087,333.913 178.087,367.304 111.304,367.304 111.304,400.696 77.913,400.696 77.913,512 
			434.087,512 434.087,400.696 400.696,400.696 400.696,367.304 333.913,367.304 333.913,333.913 		"/>
	</g>
</g>
<g>
</g>
<g>
</g>
<g>
</g>
<g>
</g>
<g>
</g>
<g>
</g>
<g>
</g>
<g>
</g>
<g>
</g>
<g>
</g>
<g>
</g>
<g>
</g>
<g>
</g>
<g>
</g>
<g>
</g>
</svg>
