<?xml version="1.0" encoding="iso-8859-1"?>
<!-- Generator: Adobe Illustrator 19.0.0, SVG Export Plug-In . SVG Version: 6.00 Build 0)  -->
<svg version="1.1" id="Layer_1" xmlns="http://www.w3.org/2000/svg" xmlns:xlink="http://www.w3.org/1999/xlink" x="0px" y="0px"
	 viewBox="0 0 512 512" style="enable-background:new 0 0 512 512;" xml:space="preserve">
<g>
	<g>
		<polygon points="477.867,142.222 477.867,108.089 443.733,108.089 443.733,73.956 307.2,73.956 307.2,108.089 273.067,108.089 
			273.067,142.222 238.933,142.222 238.933,108.089 204.8,108.089 204.8,73.956 68.267,73.956 68.267,108.089 34.133,108.089 
			34.133,142.222 0,142.222 0,290.133 34.133,290.133 34.133,324.267 68.267,324.267 68.267,358.4 34.133,358.4 34.133,438.044 
			238.933,438.044 238.933,358.4 204.8,358.4 204.8,324.267 238.933,324.267 238.933,290.133 273.067,290.133 273.067,324.267 
			307.2,324.267 307.2,358.4 273.067,358.4 273.067,438.044 477.867,438.044 477.867,358.4 443.733,358.4 443.733,324.267 
			477.867,324.267 477.867,290.133 512,290.133 512,142.222 		"/>
	</g>
</g>
<g>
</g>
<g>
</g>
<g>
</g>
<g>
</g>
<g>
</g>
<g>
</g>
<g>
</g>
<g>
</g>
<g>
</g>
<g>
</g>
<g>
</g>
<g>
</g>
<g>
</g>
<g>
</g>
<g>
</g>
</svg>
