<?xml version="1.0" encoding="iso-8859-1"?>
<!-- Generator: Adobe Illustrator 16.0.0, SVG Export Plug-In . SVG Version: 6.00 Build 0)  -->
<!DOCTYPE svg PUBLIC "-//W3C//DTD SVG 1.1//EN" "http://www.w3.org/Graphics/SVG/1.1/DTD/svg11.dtd">
<svg version="1.1" id="Capa_1" xmlns="http://www.w3.org/2000/svg" xmlns:xlink="http://www.w3.org/1999/xlink" x="0px" y="0px"
	 width="97.691px" height="97.691px" viewBox="0 0 97.691 97.691" style="enable-background:new 0 0 97.691 97.691;"
	 xml:space="preserve">
<g>
	<path d="M97.082,84.759L69.068,56.747c-0.812-0.812-2.127-0.811-2.938,0l-0.757,0.755l-13.18-13.18l8.899-8.898l1.612,1.61
		c0.812,0.813,2.127,0.813,2.938,0l8.357-8.356c0.811-0.812,0.811-2.126,0-2.938L48.871,0.609c-0.812-0.812-2.126-0.812-2.938,0
		l-8.358,8.357c-0.39,0.389-0.609,0.917-0.609,1.469c0,0.55,0.219,1.079,0.609,1.469l1.612,1.611L13.515,39.191l-1.611-1.613
		c-0.39-0.39-0.918-0.608-1.469-0.608l0,0c-0.551,0-1.08,0.219-1.469,0.608l-8.358,8.359C0.219,46.327,0,46.854,0,47.406
		c0,0.55,0.219,1.08,0.608,1.469l25.13,25.13c0.812,0.812,2.127,0.812,2.938,0l8.358-8.359c0.39-0.39,0.609-0.917,0.609-1.469
		c0-0.55-0.219-1.079-0.609-1.469l-1.612-1.611l8.9-8.899l13.179,13.18l-0.756,0.753c-0.39,0.39-0.608,0.919-0.608,1.469
		c0,0.553,0.219,1.079,0.608,1.47L84.76,97.083c0.39,0.39,0.918,0.607,1.469,0.607s1.078-0.219,1.469-0.607l9.385-9.386
		C97.895,86.885,97.895,85.572,97.082,84.759z"/>
</g>
<g>
</g>
<g>
</g>
<g>
</g>
<g>
</g>
<g>
</g>
<g>
</g>
<g>
</g>
<g>
</g>
<g>
</g>
<g>
</g>
<g>
</g>
<g>
</g>
<g>
</g>
<g>
</g>
<g>
</g>
</svg>
