<svg fill="#000000" xmlns="http://www.w3.org/2000/svg"  viewBox="0 0 32 32" width="256px" height="256px" baseProfile="basic"><rect width="2" height="2" x="24" y="8"/><rect width="2" height="2" x="6" y="8"/><rect width="2" height="2" x="6" y="22"/><rect width="2" height="2" x="8" y="6"/><rect width="2" height="2" x="8" y="24"/><rect width="2" height="2" x="22" y="6"/><rect width="2" height="2" x="22" y="24"/><rect width="2" height="2" x="24" y="22"/><line x1="27" x2="27" y1="22" y2="10" fill="none" stroke="#000000" stroke-miterlimit="10" stroke-width="2"/><line x1="10" x2="22" y1="27" y2="27" fill="none" stroke="#000000" stroke-miterlimit="10" stroke-width="2"/><line x1="5" x2="5" y1="10" y2="22" fill="none" stroke="#000000" stroke-miterlimit="10" stroke-width="2"/><line x1="22" x2="10" y1="5" y2="5" fill="none" stroke="#000000" stroke-miterlimit="10" stroke-width="2"/><rect width="2" height="2" x="14" y="14"/><rect width="2" height="2" x="16" y="16"/><rect width="2" height="2" x="12" y="12"/><rect width="2" height="2" x="10" y="10"/><rect width="2" height="2" x="20" y="20"/><rect width="2" height="2" x="22" y="22"/><rect width="2" height="2" x="8" y="8"/><rect width="2" height="2" x="18" y="18"/></svg>