<?xml version="1.0" encoding="iso-8859-1"?>
<!-- Generator: Adobe Illustrator 19.0.0, SVG Export Plug-In . SVG Version: 6.00 Build 0)  -->
<svg version="1.1" id="Layer_1" xmlns="http://www.w3.org/2000/svg" xmlns:xlink="http://www.w3.org/1999/xlink" x="0px" y="0px"
	 viewBox="0 0 512 512" style="enable-background:new 0 0 512 512;" xml:space="preserve">
<g>
	<g>
		<polygon points="478.609,200.35 478.609,166.959 478.609,133.568 445.216,133.568 445.216,100.176 478.608,100.176 
			478.608,66.784 511.999,66.784 511.999,0.001 244.869,0.001 244.869,267.13 311.651,267.13 311.651,233.738 345.043,233.738 
			345.043,200.347 378.435,200.347 378.435,233.741 411.825,233.741 411.825,345.043 378.434,345.043 378.434,378.435 
			345.043,378.435 345.043,411.826 166.956,411.826 166.956,378.435 133.565,378.435 133.565,345.043 100.174,345.043 
			100.174,166.957 133.565,166.957 133.565,66.783 66.782,66.783 66.782,100.174 33.391,100.174 33.391,166.957 0,166.957 
			0,345.043 33.391,345.043 33.391,411.826 66.782,411.826 66.782,445.217 100.174,445.217 100.174,478.608 166.956,478.608 
			166.956,511.999 345.043,511.999 345.043,478.608 411.825,478.608 411.825,445.217 445.216,445.217 445.216,411.827 
			478.608,411.827 478.608,345.046 512,345.046 512,200.35 		"/>
	</g>
</g>
<g>
</g>
<g>
</g>
<g>
</g>
<g>
</g>
<g>
</g>
<g>
</g>
<g>
</g>
<g>
</g>
<g>
</g>
<g>
</g>
<g>
</g>
<g>
</g>
<g>
</g>
<g>
</g>
<g>
</g>
</svg>
