<?xml version="1.0" encoding="iso-8859-1"?>
<!-- Generator: Adobe Illustrator 19.0.0, SVG Export Plug-In . SVG Version: 6.00 Build 0)  -->
<svg version="1.1" id="Layer_1" xmlns="http://www.w3.org/2000/svg" xmlns:xlink="http://www.w3.org/1999/xlink" x="0px" y="0px"
	 viewBox="0 0 512 512" style="enable-background:new 0 0 512 512;" xml:space="preserve">
<path style="fill:#FEDEA1;" d="M371.2,345.6c-28.237,0-51.2-22.963-51.2-51.2s22.963-51.2,51.2-51.2s51.2,22.963,51.2,51.2
	C422.4,322.637,399.437,345.6,371.2,345.6z"/>
<path style="fill:#BFA779;" d="M51.2,499.2c-10.257,0-19.9-3.994-27.153-11.247C16.794,480.7,12.8,471.057,12.8,460.8
	c0-10.266,4.002-19.908,11.247-27.153l79.07-79.07C77.483,317.935,64,275.234,64,230.4c0-1.715,0.111-3.396,0.222-5.086l0.145-2.492
	l1.024-29.423l253.21,253.201l-29.414,1.033c-0.845,0.026-1.664,0.094-2.5,0.145c-1.69,0.111-3.371,0.222-5.086,0.222
	c-44.843,0-87.535-13.491-124.177-39.117l-79.078,79.07C71.1,495.206,61.457,499.2,51.2,499.2z"/>
<path style="fill:#A0BF7C;" d="M66.859,194.85l1.314-6.699C88.175,86.554,177.937,12.8,281.6,12.8
	c119.987,0,217.6,97.613,217.6,217.6c0,103.654-73.754,193.417-175.351,213.427l-6.699,1.323L66.859,194.85z M371.2,243.2
	c-28.237,0-51.2,22.963-51.2,51.2c0,28.237,22.963,51.2,51.2,51.2s51.2-22.963,51.2-51.2S399.437,243.2,371.2,243.2z"/>
<g>
	<path style="fill:#573A32;" d="M371.2,230.4c-35.285,0-64,28.706-64,64c0,35.285,28.715,64,64,64s64-28.715,64-64
		C435.2,259.106,406.485,230.4,371.2,230.4z M371.2,332.8c-21.205,0-38.4-17.195-38.4-38.4c0-21.205,17.195-38.4,38.4-38.4
		c21.205,0,38.4,17.195,38.4,38.4C409.6,315.605,392.405,332.8,371.2,332.8z"/>
	<path style="fill:#573A32;" d="M281.6,0C154.556,0,51.2,103.356,51.2,230.4c0,43.878,12.194,85.811,35.456,122.539l-71.654,71.654
		C5.325,434.261,0,447.121,0,460.8c0,13.679,5.325,26.53,14.993,36.207C24.67,506.675,37.521,512,51.2,512
		s26.53-5.325,36.207-14.993l71.654-71.654c36.727,23.253,78.66,35.447,122.539,35.447c127.044,0,230.4-103.356,230.4-230.4
		S408.644,0,281.6,0z M281.6,435.2c-47.317,0-90.761-16.205-125.44-43.153l-86.861,86.852C64.307,483.9,57.754,486.4,51.2,486.4
		s-13.107-2.5-18.099-7.501c-10.001-10.001-10.001-26.206,0-36.207l86.852-86.852C93.005,321.161,76.8,277.717,76.8,230.4
		c0-2.406,0.282-4.745,0.358-7.134l211.575,211.575C286.345,434.918,284.006,435.2,281.6,435.2z M321.374,431.266l-240.64-240.64
		C99.251,96.563,182.11,25.6,281.6,25.6c113.109,0,204.8,91.691,204.8,204.8C486.4,329.89,415.437,412.749,321.374,431.266z"/>
</g>
<g>
</g>
<g>
</g>
<g>
</g>
<g>
</g>
<g>
</g>
<g>
</g>
<g>
</g>
<g>
</g>
<g>
</g>
<g>
</g>
<g>
</g>
<g>
</g>
<g>
</g>
<g>
</g>
<g>
</g>
</svg>
